PathFileType	4	(X/Y/Z)	Kaydara																																																																																																																									
DataRate	CameraRate	NumFrames	NumMarkers	Units	OrigDataRate	OrigDataStartFrame	OrigNumFrames																																																																																																																					
30	30	5	41	mm	30	226	258																																																																																																																					
Frame#	Time	SALE_LFHD			SALE_RFHD			SALE_LBHD			SALE_RBHD			SALE_LFTShould			SALE_RFTShould			SALE_LRRShould			SALE_RRRShould			SALE_T10			SALE_STRN			SALE_TRUN			SALE_LSHO			SALE_LUPA			SALE_LELB			SALE_LFRM			SALE_LWRA			SALE_LWRB			SALE_LFIN			SALE_RSHO			SALE_RUPA			SALE_RELB			SALE_RFRM			SALE_RWRB			SALE_RFIN			SALE_LFWT			SALE_RFWT			SALE_LBWT			SALE_RBWT			SALE_LTHI			SALE_LKNE			SALE_RWRA			SALE_LSHN			SALE_LANK			SALE_LHEE			SALE_LTOE			SALE_RTHI			SALE_RKNE			SALE_RSHN			SALE_RANK			SALE_RHEE			SALE_RTOE		
		X1	Y1	Z1	X2	Y2	Z2	X3	Y3	Z3	X4	Y4	Z4	X5	Y5	Z5	X6	Y6	Z6	X7	Y7	Z7	X8	Y8	Z8	X9	Y9	Z9	X10	Y10	Z10	X11	Y11	Z11	X12	Y12	Z12	X13	Y13	Z13	X14	Y14	Z14	X15	Y15	Z15	X16	Y16	Z16	X17	Y17	Z17	X18	Y18	Z18	X19	Y19	Z19	X20	Y20	Z20	X21	Y21	Z21	X22	Y22	Z22	X23	Y23	Z23	X24	Y24	Z24	X25	Y25	Z25	X26	Y26	Z26	X27	Y27	Z27	X28	Y28	Z28	X29	Y29	Z29	X30	Y30	Z30	X31	Y31	Z31	X32	Y32	Z32	X33	Y33	Z33	X34	Y34	Z34	X35	Y35	Z35	X36	Y36	Z36	X37	Y37	Z37	X38	Y38	Z38	X39	Y39	Z39	X40	Y40	Z40	X41	Y41	Z41
																																																																																																																												
226	7.51	253.68601	1559.7049	2001.64734	124.83823	1574.81384	2012.77924	243.72337	1595.65643	1874.80621	118.71142	1607.47589	1891.26434	236.29606	1337.05048	1907.77939	95.7898	1333.49701	1900.51544	236.62201	1406.11176	1803.4198	85.56617	1408.30719	1801.70746	165.40352	1261.54663	1716.32767	160.5855	1260.71655	1942.94373	157.59616	1171.22276	1975.77255	354.27731	1373.68866	1850.49316	407.49325	1161.5596	1857.76199	402.81532	1048.71437	1852.3288	435.653	951.76353	1900.86685	379.78706	823.07327	1988.91922	448.3691	814.71474	1955.40558	444.77558	780.80734	2008.63617	-9.01933	1370.37308	1835.5069	-39.78867	1153.73924	1742.71881	-76.11198	1049.12491	1773.35709	-73.50614	936.32103	1752.3941	-96.33851	795.65903	1782.43805	-107.3091	750.93559	1832.16187	293.30755	933.57292	1899.92294	16.72499	929.06479	1891.19202	237.97371	990.4953	1730.28168	58.85291	985.36423	1719.70596	276.42435	639.44408	1723.93188	264.89679	465.29472	1792.8801	-51.45388	799.48158	1843.34106	250.46043	266.22181	1776.97113	230.60852	85.97445	1718.84964	188.09658	38.99881	1655.61798	205.6284	46.74372	1851.60202	9.64061	658.73245	1820.88043	38.85222	546.74786	1983.97934	88.46461	336.07506	1979.67743	37.25091	94.75514	1890.72235	42.48052	40.25497	2005.02655	85.34574	35.0751	1817.20886
227	7.543	251.43234	1556.90201	2029.20547	122.50174	1571.04965	2039.94049	241.57545	1592.97684	1902.40738	116.30596	1603.76114	1918.5437	235.79763	1333.72467	1933.93188	95.29795	1329.73602	1928.23044	234.9781	1403.33603	1829.8468	83.73618	1405.0708	1829.58527	163.29374	1258.87268	1742.9129	160.81659	1256.88904	1969.5639	158.47291	1167.22939	2001.95496	353.1369	1370.90118	1875.85526	407.25811	1159.13544	1883.15094	403.51307	1046.07651	1878.46863	435.87608	950.01541	1930.64835	379.37035	825.36736	2023.80157	447.79312	814.81674	1990.6105	444.44016	784.13666	2045.41214	-10.32598	1366.42242	1864.05334	-40.62396	1150.44312	1769.8439	-74.59754	1044.78218	1800.20142	-70.15673	931.84631	1779.16077	-89.31292	790.7402	1809.97314	-98.39196	746.30547	1860.29861	292.78492	929.69086	1924.02924	16.13266	925.83694	1918.04276	236.07096	988.5524	1755.51315	57.03976	983.63014	1746.98486	275.0453	639.72298	1741.21231	263.7636	463.75675	1805.383	-43.3294	794.89929	1868.49411	249.46396	265.14881	1783.48389	229.94322	86.19442	1720.95306	186.40848	40.15152	1655.71991	206.19883	46.39769	1852.02774	10.39991	655.81184	1842.49542	41.98682	542.81345	2003.43903	91.43167	339.71771	2023.25409	38.73888	85.36834	1985.24734	49.25276	41.87876	2108.11417	84.18363	22.44829	1919.24438
228	7.577	249.06017	1553.38531	2055.84595	120.07729	1567.01096	2066.69724	238.95834	1589.31152	1929.05762	113.60029	1599.60083	1945.23727	234.42577	1329.90341	1960.1889	94.01514	1325.83008	1955.87631	232.25628	1399.37088	1855.98969	80.99446	1400.65323	1857.25327	160.308	1254.67346	1770.07736	160.06699	1252.76581	1996.63696	158.24664	1163.15186	2029.08676	351.05686	1367.20184	1900.6279	405.81081	1155.48698	1907.07184	402.48455	1042.41241	1903.30887	434.5755	947.12395	1958.45688	377.81242	826.49132	2056.29868	445.93487	814.03053	2023.18436	442.80743	786.03546	2079.28131	-12.58117	1361.69205	1892.85858	-42.25931	1145.61668	1798.90503	-73.09572	1039.19197	1829.65897	-67.02477	926.42921	1808.30093	-82.74481	784.73442	1839.38309	-88.67488	740.04463	1889.78439	291.88118	925.22682	1950.05737	14.92855	920.45044	1945.33646	234.44151	985.79704	1782.53464	55.7365	980.24246	1775.38513	274.54939	639.95216	1759.84009	263.31617	462.26208	1818.8327	-36.21518	792.24625	1899.77722	248.95573	264.19556	1790.61966	229.32594	87.13434	1722.724	185.46595	41.95466	1656.50879	206.58888	46.21324	1852.04071	9.17068	650.26169	1861.17599	39.83896	534.56165	2021.21399	94.50835	345.17075	2061.71997	40.9148	90.96917	2071.32126	59.21809	51.32875	2201.53519	84.46246	20.43396	2011.07208
229	7.61	246.3287	1549.06479	2081.54053	117.27571	1562.3024	2092.68143	235.79117	1584.41452	1954.62692	110.36386	1594.38278	1971.18561	232.24224	1325.16876	1986.50604	91.90393	1320.65628	1983.53455	228.61065	1393.8974	1881.63528	77.48412	1394.92203	1884.62448	156.43286	1248.79295	1797.29309	158.30226	1248.20763	2024.25201	157.00401	1158.77884	2057.20139	348.01453	1362.60925	1925.23163	402.92519	1151.20567	1931.19049	399.62391	1038.01804	1927.13318	431.70563	943.35136	1984.55017	375.15343	825.82611	2086.24191	443.15258	812.11021	2053.21732	440.32982	785.89737	2109.76761	-15.50968	1355.77469	1921.30707	-44.34232	1139.15115	1829.11057	-72.55903	1032.77733	1861.27975	-66.54053	920.39413	1838.99979	-81.40079	777.92648	1869.59473	-82.34784	731.37291	1919.46625	290.79632	920.5201	1977.79633	13.81441	913.62228	1973.50189	232.71431	982.06123	1810.93292	53.3929	975.7608	1802.76093	274.15976	640.04913	1780.14511	263.4901	460.65788	1833.13293	-29.56219	783.02895	1922.20871	249.03126	263.14148	1798.70697	229.25047	88.29709	1724.63974	185.03658	44.2953	1657.20856	206.87563	46.04556	1852.30133	6.68541	643.83606	1883.86826	36.82899	527.08965	2046.2735	89.8278	347.68841	2096.92551	49.5247	94.80978	2138.47824	67.30628	76.64718	2272.14478	98.94006	16.13201	2090.32379
230	7.643	243.14405	1544.57642	2106.69525	114.10133	1557.63992	2118.45779	231.68001	1578.99963	1979.57733	106.39593	1588.89633	1996.76331	229.10141	1320.0975	2012.95151	88.59619	1314.90723	2010.93842	224.26249	1388.08578	1907.49115	73.15085	1388.41492	1911.61285	152.2209	1242.00294	1824.93225	155.70699	1243.04199	2051.93176	155.00397	1153.77312	2085.45929	344.2646	1357.36145	1950.16129	399.11762	1145.82832	1955.04166	395.2837	1032.68082	1950.61325	427.54517	938.12111	2009.14169	371.33759	822.41264	2113.18604	438.83373	807.9493	2079.89914	436.68137	782.95387	2136.83075	-19.36444	1348.88321	1949.37302	-47.59629	1130.58167	1860.01038	-74.98423	1025.01053	1893.54218	-69.3295	913.60306	1869.49112	-83.88697	770.53925	1897.33994	-84.6207	721.96281	1945.86334	288.66213	915.16098	2007.02515	11.92281	907.04041	2002.40982	230.33693	976.99875	1840.28473	50.76739	969.61227	1831.45752	273.95901	639.6627	1802.92252	263.37355	458.73062	1850.22339	-32.7596	775.22438	1950.59402	248.70682	262.02888	1808.42239	229.69128	90.05263	1727.48825	185.82453	47.69703	1658.05725	206.99125	45.878	1852.79266	4.34005	637.37686	1919.71085	32.46521	520.94311	2075.55756	88.03602	346.59359	2133.60565	51.80859	95.29533	2186.17325	68.68658	84.52116	2320.31601	102.72367	13.18907	2141.88339
